<svg xmlns="http://www.w3.org/2000/svg" width="62" height="62" viewBox="0 0 62 62" fill="none">
  <path d="M0.999976 15.6327C0.999978 -0.629346 14.1829 11.0759 30.4449 11.0759C46.7069 11.0759 59.8899 -0.629341 59.8899 15.6327C59.8899 31.8947 46.7069 48.583 30.4449 48.583C14.1829 48.583 0.999975 31.8947 0.999976 15.6327Z" fill="#50B848"/>
  <path opacity="0.5" d="M0.999976 18.6569C0.999978 2.39492 14.1829 14.1001 30.4449 14.1001C46.7069 14.1001 59.8899 2.39492 59.8899 18.6569C59.8899 34.9189 46.7069 51.6072 30.4449 51.6072C14.1829 51.6072 0.999975 34.9189 0.999976 18.6569Z" fill="#50B848"/>
  <path opacity="0.2" d="M0.999976 22.8633C0.999978 6.60134 14.1829 18.3065 30.4449 18.3065C46.7069 18.3065 59.8899 6.60134 59.8899 22.8633C59.8899 39.1253 46.7069 55.8137 30.4449 55.8137C14.1829 55.8137 0.999975 39.1253 0.999976 22.8633Z" fill="#50B848"/>
  <path d="M51.5701 28.7108H49.9722V28.0659H51.5701C51.8796 28.0659 52.1301 28.0166 52.3218 27.918C52.5135 27.8194 52.6532 27.6825 52.7408 27.5072C52.8312 27.332 52.8764 27.1321 52.8764 26.9075C52.8764 26.7021 52.8312 26.509 52.7408 26.3283C52.6532 26.1475 52.5135 26.0024 52.3218 25.8929C52.1301 25.7806 51.8796 25.7244 51.5701 25.7244H50.157V31.0564H49.3642V25.0754H51.5701C52.022 25.0754 52.404 25.1534 52.7162 25.3095C53.0284 25.4656 53.2653 25.682 53.4269 25.9586C53.5884 26.2324 53.6692 26.546 53.6692 26.8993C53.6692 27.2827 53.5884 27.6099 53.4269 27.881C53.2653 28.1522 53.0284 28.3589 52.7162 28.5013C52.404 28.641 52.022 28.7108 51.5701 28.7108Z" fill="white"/>
  <path d="M47.9224 25.0754V31.0564H47.1295V25.0754H47.9224Z" fill="white"/>
  <path d="M44.9729 27.6469V28.2918H41.736V27.6469H44.9729ZM41.8592 25.0754V31.0564H41.0664V25.0754H41.8592ZM45.663 25.0754V31.0564H44.8743V25.0754H45.663Z" fill="white"/>
  <path d="M39.2589 29.5447C39.2589 29.4051 39.237 29.2818 39.1932 29.175C39.1521 29.0655 39.0782 28.9669 38.9714 28.8793C38.8673 28.7916 38.7222 28.7081 38.536 28.6287C38.3525 28.5493 38.1197 28.4685 37.8376 28.3863C37.5419 28.2987 37.2748 28.2015 37.0366 28.0947C36.7983 27.9851 36.5943 27.8605 36.4245 27.7208C36.2547 27.5812 36.1247 27.421 36.0343 27.2402C35.9439 27.0595 35.8987 26.8527 35.8987 26.6199C35.8987 26.3872 35.9466 26.1722 36.0425 25.975C36.1383 25.7778 36.2753 25.6067 36.4533 25.4615C36.634 25.3137 36.849 25.1986 37.0982 25.1165C37.3474 25.0343 37.6254 24.9932 37.9321 24.9932C38.3812 24.9932 38.7619 25.0795 39.0741 25.252C39.389 25.4218 39.6286 25.645 39.7929 25.9216C39.9573 26.1955 40.0394 26.4885 40.0394 26.8007H39.2507C39.2507 26.5761 39.2028 26.3776 39.1069 26.2051C39.0111 26.0298 38.8659 25.8929 38.6715 25.7943C38.4771 25.6929 38.2306 25.6423 37.9321 25.6423C37.65 25.6423 37.4173 25.6847 37.2338 25.7696C37.0503 25.8545 36.9134 25.9695 36.823 26.1147C36.7354 26.2598 36.6915 26.4255 36.6915 26.6117C36.6915 26.7377 36.7176 26.8527 36.7696 26.9568C36.8244 27.0581 36.9079 27.1526 37.0202 27.2402C37.1352 27.3279 37.2803 27.4086 37.4556 27.4826C37.6336 27.5565 37.8458 27.6277 38.0923 27.6962C38.4319 27.792 38.7249 27.8988 38.9714 28.0166C39.2179 28.1344 39.4205 28.2672 39.5793 28.4151C39.7409 28.5602 39.86 28.7259 39.9367 28.9121C40.0161 29.0956 40.0559 29.3037 40.0559 29.5365C40.0559 29.7802 40.0066 30.0007 39.908 30.1979C39.8094 30.395 39.6683 30.5635 39.4849 30.7031C39.3014 30.8428 39.0809 30.951 38.8235 31.0277C38.5688 31.1016 38.284 31.1386 37.9691 31.1386C37.6925 31.1386 37.42 31.1002 37.1516 31.0235C36.886 30.9469 36.6436 30.8318 36.4245 30.6785C36.2082 30.5251 36.0343 30.3362 35.9028 30.1116C35.7741 29.8843 35.7098 29.6214 35.7098 29.3229H36.4985C36.4985 29.5283 36.5382 29.7049 36.6176 29.8528C36.697 29.998 36.8052 30.1185 36.9421 30.2143C37.0818 30.3101 37.2392 30.3814 37.4145 30.4279C37.5925 30.4717 37.7774 30.4936 37.9691 30.4936C38.2457 30.4936 38.4798 30.4553 38.6715 30.3786C38.8632 30.3019 39.0084 30.1924 39.1069 30.05C39.2083 29.9076 39.2589 29.7392 39.2589 29.5447Z" fill="white"/>
  <path d="M34.6664 25.0754V31.0564H33.8695L30.8584 26.4433V31.0564H30.0656V25.0754H30.8584L33.8818 29.7008V25.0754H34.6664Z" fill="white"/>
  <path d="M24.8815 25.0754H26.8615C27.3106 25.0754 27.6899 25.1439 27.9994 25.2808C28.3116 25.4177 28.5484 25.6204 28.71 25.8887C28.8743 26.1544 28.9565 26.4816 28.9565 26.8705C28.9565 27.1444 28.9003 27.395 28.7881 27.6223C28.6785 27.8468 28.5197 28.0385 28.3116 28.1974C28.1062 28.3534 27.8597 28.4698 27.5721 28.5465L27.3503 28.6328H25.4895L25.4813 27.9879H26.8861C27.1709 27.9879 27.4078 27.9386 27.5968 27.84C27.7857 27.7386 27.9282 27.6031 28.024 27.4333C28.1199 27.2635 28.1678 27.0759 28.1678 26.8705C28.1678 26.6405 28.1226 26.4392 28.0322 26.2667C27.9418 26.0941 27.7994 25.9613 27.605 25.8682C27.4133 25.7724 27.1655 25.7244 26.8615 25.7244H25.6743V31.0564H24.8815V25.0754ZM28.3773 31.0564L26.9231 28.3452L27.7488 28.3411L29.2235 31.0071V31.0564H28.3773Z" fill="white"/>
  <path d="M23.8997 30.4115V31.0564H20.7326V30.4115H23.8997ZM20.8928 25.0754V31.0564H20.1V25.0754H20.8928ZM23.4807 27.6469V28.2918H20.7326V27.6469H23.4807ZM23.8587 25.0754V25.7244H20.7326V25.0754H23.8587Z" fill="white"/>
  <path d="M17.2902 25.0754V31.0564H16.5097V25.0754H17.2902ZM19.2127 25.0754V25.7244H14.5914V25.0754H19.2127Z" fill="white"/>
  <path d="M13.7986 25.0754V31.0564H13.0017L9.99061 26.4433V31.0564H9.1978V25.0754H9.99061L13.014 29.7008V25.0754H13.7986Z" fill="white"/>
  <path d="M7.75595 25.0754V31.0564H6.96313V25.0754H7.75595Z" fill="white"/>
  <path d="M36.1698 15.2604L37.7226 18.2632L39.2795 15.2604H40.1791L38.117 19.0068V21.2414H37.3241V19.0068L35.262 15.2604H36.1698Z" fill="white"/>
  <path d="M34.0872 19.7297C34.0872 19.5901 34.0653 19.4668 34.0214 19.36C33.9804 19.2505 33.9064 19.1519 33.7996 19.0643C33.6956 18.9766 33.5504 18.8931 33.3642 18.8137C33.1807 18.7343 32.9479 18.6535 32.6659 18.5713C32.3701 18.4837 32.1031 18.3865 31.8648 18.2797C31.6266 18.1701 31.4226 18.0455 31.2528 17.9059C31.083 17.7662 30.9529 17.606 30.8625 17.4252C30.7721 17.2445 30.727 17.0377 30.727 16.805C30.727 16.5722 30.7749 16.3572 30.8707 16.16C30.9666 15.9628 31.1035 15.7917 31.2815 15.6465C31.4623 15.4987 31.6772 15.3836 31.9264 15.3015C32.1757 15.2193 32.4536 15.1783 32.7603 15.1783C33.2095 15.1783 33.5901 15.2645 33.9023 15.437C34.2173 15.6068 34.4569 15.83 34.6212 16.1066C34.7855 16.3805 34.8677 16.6735 34.8677 16.9857H34.079C34.079 16.7611 34.031 16.5626 33.9352 16.3901C33.8393 16.2148 33.6942 16.0779 33.4997 15.9793C33.3053 15.878 33.0588 15.8273 32.7603 15.8273C32.4783 15.8273 32.2455 15.8697 32.062 15.9546C31.8785 16.0395 31.7416 16.1545 31.6512 16.2997C31.5636 16.4448 31.5198 16.6105 31.5198 16.7967C31.5198 16.9227 31.5458 17.0377 31.5978 17.1418C31.6526 17.2431 31.7361 17.3376 31.8484 17.4252C31.9634 17.5129 32.1086 17.5937 32.2838 17.6676C32.4618 17.7415 32.6741 17.8127 32.9205 17.8812C33.2601 17.9771 33.5532 18.0839 33.7996 18.2016C34.0461 18.3194 34.2487 18.4522 34.4076 18.6001C34.5692 18.7452 34.6883 18.9109 34.765 19.0971C34.8444 19.2806 34.8841 19.4887 34.8841 19.7215C34.8841 19.9653 34.8348 20.1857 34.7362 20.3829C34.6376 20.5801 34.4966 20.7485 34.3131 20.8881C34.1296 21.0278 33.9092 21.136 33.6517 21.2127C33.3971 21.2866 33.1122 21.3236 32.7973 21.3236C32.5207 21.3236 32.2482 21.2852 31.9798 21.2086C31.7142 21.1319 31.4718 21.0169 31.2528 20.8635C31.0364 20.7101 30.8625 20.5212 30.7311 20.2966C30.6024 20.0693 30.538 19.8064 30.538 19.5079H31.3267C31.3267 19.7133 31.3664 19.8899 31.4458 20.0378C31.5252 20.183 31.6334 20.3035 31.7703 20.3993C31.91 20.4952 32.0675 20.5664 32.2428 20.6129C32.4208 20.6567 32.6056 20.6786 32.7973 20.6786C33.0739 20.6786 33.308 20.6403 33.4997 20.5636C33.6914 20.4869 33.8366 20.3774 33.9352 20.235C34.0365 20.0926 34.0872 19.9242 34.0872 19.7297Z" fill="white"/>
  <path d="M27.6255 15.7903L25.6456 21.2414H24.8363L27.1162 15.2604H27.6379L27.6255 15.7903ZM29.2851 21.2414L27.301 15.7903L27.2887 15.2604H27.8104L30.0985 21.2414H29.2851ZM29.1824 19.0273V19.6763H25.8222V19.0273H29.1824Z" fill="white"/>
  <path d="M24.4296 20.5965V21.2414H21.2625V20.5965H24.4296ZM21.4227 15.2604V21.2414H20.6299V15.2604H21.4227ZM24.0106 17.8319V18.4768H21.2625V17.8319H24.0106ZM24.3886 15.2604V15.9094H21.2625V15.2604H24.3886Z" fill="white"/>
</svg>